<?xml version="1.0" standalone="no"?>
<!DOCTYPE svg PUBLIC "-//W3C//DTD SVG 20010904//EN"
 "http://www.w3.org/TR/2001/REC-SVG-20010904/DTD/svg10.dtd">
<svg version="1.0" xmlns="http://www.w3.org/2000/svg"
 width="420.000000pt" height="420.000000pt" viewBox="0 0 420.000000 420.000000"
 preserveAspectRatio="xMidYMid meet">
<metadata>
Created by potrace 1.14, written by Peter Selinger 2001-2017
</metadata>
<g transform="translate(0.000000,420.000000) scale(0.100000,-0.100000)"
fill="#000000" stroke="none">
<path d="M2045 4112 c-16 -2 -36 -8 -42 -14 -9 -7 -13 -7 -13 1 0 7 -5 9 -10
6 -6 -4 -41 -9 -77 -11 -37 -3 -71 -8 -76 -11 -4 -3 -29 -7 -55 -9 -26 -2 -57
-6 -69 -9 -13 -3 -32 -7 -44 -10 -11 -2 -29 -7 -39 -10 -10 -3 -29 -8 -42 -11
-38 -8 -53 -12 -55 -14 -2 -2 -7 -4 -13 -5 -5 -1 -13 -4 -17 -5 -5 -2 -12 -4
-18 -5 -5 -1 -19 -6 -30 -10 -18 -7 -70 -28 -145 -57 -14 -5 -27 -10 -30 -10
-3 0 -17 -9 -31 -19 -14 -10 -29 -16 -33 -12 -3 3 -6 1 -6 -6 0 -7 -4 -10 -9
-7 -5 3 -14 -1 -21 -9 -7 -8 -21 -15 -31 -15 -11 0 -19 -4 -19 -10 0 -5 -7
-10 -15 -10 -8 0 -15 -3 -15 -7 0 -5 -18 -17 -40 -27 -22 -11 -40 -23 -40 -28
0 -4 -5 -8 -11 -8 -5 0 -30 -15 -54 -32 -23 -18 -55 -42 -70 -53 -80 -57 -268
-241 -320 -310 -17 -22 -40 -51 -53 -65 -12 -14 -25 -33 -28 -42 -3 -10 -9
-18 -13 -18 -4 0 -23 -27 -42 -60 -18 -33 -37 -60 -41 -60 -5 0 -8 -4 -8 -9 0
-4 -18 -40 -39 -80 -22 -39 -37 -71 -35 -71 2 0 -2 -10 -11 -23 -8 -13 -12
-27 -8 -30 3 -4 1 -7 -5 -7 -6 0 -16 -17 -23 -37 -6 -21 -15 -43 -20 -49 -5
-6 -6 -14 -2 -17 3 -4 1 -7 -5 -7 -6 0 -9 -9 -7 -20 2 -11 1 -20 -4 -20 -4 0
-13 -21 -21 -47 -7 -27 -14 -51 -15 -55 -2 -5 -4 -11 -5 -15 -1 -5 -2 -11 -1
-15 0 -4 -4 -19 -9 -33 -10 -25 -16 -52 -26 -110 -33 -188 -37 -246 -33 -411
1 -44 -1 -86 -5 -92 -4 -7 -3 -12 2 -12 5 0 10 -27 11 -60 1 -33 4 -69 6 -82
3 -12 7 -38 10 -58 12 -81 25 -138 41 -189 8 -24 13 -46 10 -48 -3 -3 4 -21
15 -40 11 -19 15 -31 9 -28 -8 5 -8 1 -1 -14 28 -54 31 -61 31 -71 0 -6 18
-49 40 -96 22 -47 40 -88 40 -90 0 -3 11 -22 24 -43 14 -21 22 -42 19 -45 -4
-3 -1 -6 4 -6 6 0 21 -20 33 -45 12 -25 26 -45 31 -45 5 0 9 -7 9 -15 0 -9 7
-18 15 -21 8 -4 13 -9 10 -13 -2 -4 7 -19 21 -34 13 -14 24 -30 24 -34 0 -5 8
-16 18 -24 22 -20 52 -58 52 -65 0 -9 212 -217 249 -244 18 -14 44 -35 57 -47
12 -13 27 -23 32 -23 5 0 17 -9 27 -20 10 -11 23 -20 29 -20 7 0 19 -9 29 -20
9 -11 24 -20 32 -20 8 0 15 -4 15 -8 0 -15 319 -173 380 -188 8 -2 42 -13 75
-24 64 -22 100 -31 128 -33 9 -1 17 -5 17 -9 0 -4 7 -5 15 -2 8 4 15 2 15 -2
0 -5 10 -9 23 -10 12 -1 42 -4 67 -8 25 -5 56 -9 70 -11 14 -2 25 -4 25 -5 0
-1 25 -3 55 -5 68 -5 118 -12 129 -20 5 -3 12 1 14 7 3 7 6 9 6 3 1 -8 108
-12 119 -4 1 1 7 3 12 4 6 1 11 3 13 4 1 1 36 4 77 6 41 2 86 7 100 9 13 3 40
8 60 11 20 3 47 8 60 11 14 3 36 7 50 10 14 2 32 7 40 10 8 3 29 8 45 11 17 3
33 10 37 16 4 7 8 9 8 5 0 -4 15 -2 33 4 17 5 38 10 45 11 6 0 12 5 12 10 0 6
3 8 6 4 4 -3 24 3 45 14 22 11 39 17 39 15 0 -3 31 11 70 30 38 18 71 34 74
34 9 0 151 85 154 92 2 4 8 8 14 8 9 0 86 51 114 75 7 6 25 19 40 30 70 49
255 228 324 314 66 82 155 211 185 268 17 32 32 60 35 63 5 5 43 82 44 90 1 3
6 12 11 20 5 8 10 20 11 27 1 7 10 27 19 45 9 18 18 40 21 48 2 8 15 49 30 90
14 41 26 83 27 93 1 9 4 17 8 17 4 0 6 8 5 17 -2 9 3 36 10 58 13 45 27 133
39 243 2 23 7 47 10 52 3 6 1 10 -6 10 -8 0 -8 4 -2 13 6 6 9 29 9 50 -1 21 1
40 4 42 4 2 3 34 -1 72 -4 37 -6 76 -3 86 3 9 2 17 -3 17 -5 0 -9 17 -10 38
-2 70 -8 122 -13 122 -4 0 -6 10 -6 23 -1 23 -12 83 -28 152 -11 43 -50 173
-63 205 -4 8 -7 17 -8 20 -1 3 -8 19 -15 35 -7 17 -14 32 -14 35 -1 7 -64 140
-76 160 -4 8 -27 46 -49 83 -23 38 -41 70 -41 73 0 3 -6 12 -12 19 -28 31 -38
44 -38 51 0 24 -229 272 -340 368 -25 21 -62 50 -82 64 -21 13 -38 29 -38 35
0 6 -3 8 -6 4 -3 -3 -15 3 -27 14 -11 10 -27 19 -34 19 -7 0 -13 4 -13 8 0 5
-17 17 -37 28 -56 30 -87 48 -93 54 -3 3 -30 16 -60 30 -30 14 -57 28 -60 31
-3 3 -16 10 -30 14 -14 4 -44 16 -67 27 -24 11 -51 21 -60 23 -10 2 -19 4 -20
5 -2 2 -6 3 -10 4 -5 1 -12 4 -18 7 -5 3 -32 12 -60 18 -27 7 -57 15 -65 18
-44 17 -229 50 -325 59 -39 3 -86 8 -105 9 -19 2 -35 4 -35 5 0 4 -73 5 -100
2z"/>
</g>
</svg>
